<svg id="Capa_1" data-name="Capa 1" xmlns="http://www.w3.org/2000/svg" viewBox="0 0 371.81 54.23"><defs><style>.cls-1{fill:#1f1f1f;}.cls-2{fill:#f9f9f9;}</style></defs><title>Fabi-logo</title><path class="cls-1" d="M121.58,1.09V.84c-2.87,0-5.74,0-8.62,0-7.65,0-7.55,0-7.53,7.66,0,2.32.69,2.91,3,2.88,8.24-.13,16.48-.11,24.72,0,4.18.05,6.48,2,6.47,5.12,0,3.33-2.4,5.28-6.73,5.31-6.74.06-13.48,0-20.23,0-7.23,0-7.09,0-7.2,7.18-.05,2.74.89,3.27,3.41,3.21,7.48-.16,15-.09,22.47-.09,5.7,0,8.28,1.69,8.23,5.3s-2.53,5.19-8.3,5.2H108c-1.22,0-2.83-.23-2.49,1.72.5,2.89-1.34,6.05,1,8.69.11.13.48,0,.73,0,9.85-.16,19.75.72,29.56-.4a15.35,15.35,0,0,0,11.29-23.32c-1.16-1.85-1.26-2.88-.08-4.79a15.26,15.26,0,0,0-11.91-23.4C131.35.73,126.45,1.09,121.58,1.09ZM225.14.84c-1.5,0-3,0-4.5,0-7.46,0-7.37,0-7.31,7.59,0,2.27.63,3,3,3,5.74-.09,11.5-.12,17.22.24a15.26,15.26,0,0,1,14,14.84,15.44,15.44,0,0,1-13,15.79c-4.48.71-9,.3-13.47.34-8.34.06-8.27,0-7.73,8.2.12,1.83.79,2.36,2.49,2.3,6.48-.21,13,.53,19.45-.48,11.31-1.76,18.93-8,22.06-19,2.93-10.24-.18-19-8-26.15C242.43,1.24,233.94.44,225.14.84ZM71.54,23c4.85,9.54,9.32,18.36,13.82,27.17.71,1.38,1.14,3,3.33,2.94,3.21-.12,6.43,0,10.31,0L71.15,0,44.05,53.07a58.8,58.8,0,0,1,7.71.07c3.45.48,5.1-1,6.52-4C62.42,40.61,66.86,32.19,71.54,23Zm264,31.22c1.87-3.7,3.42-6.92,5.13-10a3.29,3.29,0,0,0,0-3.46Q330.85,21.8,321.13,2.86c-.5-1-.84-2-2.32-2-3.41.05-6.83,0-10.82,0C317.42,18.8,325.71,36.58,335.52,54.23ZM19,25.83c-5,0-10,.12-15,0-2.34-.08-3.13.4-3.14,3,0,6.15.5,12.29-.56,18.45-.93,5.45-.24,5.86,5.39,5.87a19.08,19.08,0,0,1,2.62,0c2.66.36,3.83-.42,3.59-3.37-.29-3.57.06-7.19-.12-10.77-.11-2.18.67-2.74,2.75-2.68,5.12.13,10.25,0,15.37,0,7.8,0,7.73,0,7.57-7.87,0-2.08-.59-2.74-2.74-2.68C29.53,25.93,24.28,25.82,19,25.83Zm148.79,1.06V8c0-7.2,0-7.06-7.28-7.21C157.76.72,157,1.43,157,4.24c.15,13.83.07,27.67.07,41.51,0,7.47,0,7.31,7.4,7.42,3,0,3.47-1.07,3.41-3.67C167.71,42,167.82,34.42,167.82,26.89ZM19,.85v0c-5,0-10,.06-15,0C2,.81.42.77.75,3.63.89,4.84.31,6.2.2,7.53-.07,10.46,1,11.42,4,11.36c8.62-.18,17.24-.06,25.86-.06,7.86,0,7.78,0,7.64-7.8,0-2.1-.64-2.75-2.77-2.69C29.51,1,24.26.85,19,.85Zm264.3,10.48v0h10.86c7.43,0,7.33,0,7.35-7.38,0-2.37-.55-3.19-3.09-3.14-8.73.15-17.47,0-26.2,0-7.67,0-7.59,0-7.42,7.77,0,2.11.67,2.8,2.78,2.75C272.83,11.25,278.07,11.33,283.31,11.33Zm-.38,41.76h11.23c7.42,0,7.32,0,7.36-7.39,0-2.34-.52-3.17-3-3.12-8.73.15-17.47,0-26.2,0-7.75,0-7.67,0-7.47,7.74.06,2.07.64,2.83,2.79,2.78C272.7,53,277.82,53.09,282.93,53.09Zm0-21h11.24c7.42,0,7.28,0,7.35-7.38,0-2.64-1-3-3.24-2.95-8.74.11-17.48,0-26.23,0-7.53,0-7.45,0-7.27,7.57.05,2.1.67,2.82,2.79,2.77C272.7,32,277.83,32.11,283,32.1ZM346.59,28c3.8,0,7-.1,10.23,0,1.64.07,2.16-1,2.72-2,3.92-7.56,7.76-15.17,11.76-22.69,1.19-2.24.2-2.22-1.68-2.47-6.3-.84-11,.43-13.1,7.32-1,3.25-3.1,6.16-4.67,9.25C350.15,20.74,348.49,24.13,346.59,28Z"/><path class="cls-2" d="M121.58,1.09c4.87,0,9.77-.36,14.59.07a15.26,15.26,0,0,1,11.91,23.4c-1.18,1.91-1.08,2.94.08,4.79a15.35,15.35,0,0,1-11.29,23.32c-9.81,1.12-19.71.24-29.56.4-.25,0-.62.08-.73,0-2.39-2.64-.55-5.8-1-8.69-.34-1.95,1.27-1.71,2.49-1.72h23.22c5.77,0,8.25-1.56,8.3-5.2s-2.53-5.29-8.23-5.3c-7.49,0-15-.07-22.47.09-2.52.06-3.46-.47-3.41-3.21.11-7.19,0-7.19,7.2-7.18,6.75,0,13.49,0,20.23,0,4.33,0,6.71-2,6.73-5.31,0-3.11-2.29-5.07-6.47-5.12-8.24-.09-16.48-.11-24.72,0-2.28,0-3-.56-3-2.88,0-7.66-.12-7.66,7.53-7.66,2.88,0,5.75,0,8.62,0Z"/><path class="cls-2" d="M225.14.84c8.8-.4,17.29.4,24.18,6.67,7.84,7.13,10.95,15.91,8,26.15-3.13,10.93-10.75,17.19-22.06,19-6.45,1-13,.27-19.45.48-1.7.06-2.37-.47-2.49-2.3-.54-8.19-.61-8.14,7.73-8.2,4.49,0,9,.37,13.47-.34a15.44,15.44,0,0,0,13-15.79,15.26,15.26,0,0,0-14-14.84c-5.72-.36-11.48-.33-17.22-.24-2.34,0-3-.68-3-3-.06-7.6-.15-7.59,7.31-7.59C222.14.85,223.64.84,225.14.84Z"/><path class="cls-2" d="M71.54,23c-4.68,9.18-9.12,17.6-13.26,26.16-1.42,2.94-3.07,4.45-6.52,4a58.8,58.8,0,0,0-7.71-.07L71.15,0,99,53.09c-3.88,0-7.1-.09-10.31,0-2.19.08-2.62-1.56-3.33-2.94C80.86,41.37,76.39,32.55,71.54,23Z"/><path class="cls-2" d="M335.52,54.23C325.71,36.58,317.42,18.8,308,.85c4,0,7.41,0,10.82,0,1.48,0,1.82,1,2.32,2q9.74,18.93,19.47,37.87a3.29,3.29,0,0,1,0,3.46C338.94,47.31,337.39,50.53,335.52,54.23Z"/><path class="cls-2" d="M19,25.83c5.25,0,10.5.1,15.74-.06,2.15-.06,2.7.6,2.74,2.68.16,7.88.23,7.88-7.57,7.87-5.12,0-10.25.08-15.37,0-2.08-.06-2.86.5-2.75,2.68.18,3.58-.17,7.2.12,10.77.24,3-.93,3.73-3.59,3.37a19.08,19.08,0,0,0-2.62,0c-5.63,0-6.32-.42-5.39-5.87C1.4,41,.88,34.89.9,28.74c0-2.56.8-3,3.14-3C9,26,14,25.83,19,25.83Z"/><path class="cls-2" d="M167.82,26.89c0,7.53-.11,15.07.05,22.61.06,2.6-.42,3.72-3.41,3.67-7.4-.11-7.4,0-7.4-7.42,0-13.84.08-27.68-.07-41.51,0-2.81.77-3.52,3.55-3.47,7.27.15,7.28,0,7.28,7.21Z"/><path class="cls-2" d="M19,.85c5.25,0,10.5.1,15.74,0,2.13-.06,2.73.59,2.77,2.69.14,7.8.22,7.8-7.64,7.8-8.62,0-17.24-.12-25.86.06C1,11.42-.07,10.46.2,7.53.31,6.2.89,4.84.75,3.63.42.77,2,.81,4,.85c5,.08,10,0,15,0Z"/><path class="cls-2" d="M283.31,11.33c-5.24,0-10.48-.08-15.72,0-2.11.05-2.74-.64-2.78-2.75-.17-7.76-.25-7.77,7.42-7.77,8.73,0,17.47.1,26.2,0,2.54-.05,3.1.77,3.09,3.14,0,7.39.08,7.39-7.35,7.38H283.31Z"/><path class="cls-2" d="M282.93,53.09c-5.11,0-10.23-.08-15.34,0-2.15,0-2.73-.71-2.79-2.78-.2-7.74-.28-7.75,7.47-7.74,8.73,0,17.47.12,26.2,0,2.53,0,3.06.78,3,3.12,0,7.38.06,7.38-7.36,7.39Z"/><path class="cls-2" d="M283,32.11c-5.12,0-10.25-.08-15.36,0-2.12.05-2.74-.67-2.79-2.77-.18-7.57-.26-7.57,7.27-7.57,8.75,0,17.49.07,26.23,0,2.26,0,3.27.31,3.24,2.95-.07,7.38.07,7.38-7.35,7.38Z"/><path class="cls-2" d="M346.59,28c1.9-3.83,3.56-7.22,5.26-10.59,1.57-3.09,3.7-6,4.67-9.25,2.07-6.89,6.8-8.16,13.1-7.32,1.88.25,2.87.23,1.68,2.47-4,7.52-7.84,15.13-11.76,22.69-.56,1.08-1.08,2.11-2.72,2C353.61,27.86,350.39,28,346.59,28Z"/></svg>