<svg id="Capa_1" data-name="Capa 1" xmlns="http://www.w3.org/2000/svg" viewBox="0 0 41.59 54.23"><defs><style>.cls-1{fill:#1f1f1f;}.cls-2{fill:#f9f9f9;}</style></defs><title>F-logo</title><path class="cls-1" d="M19,25.83c-5,0-10,.12-15,0-2.34-.08-3.13.4-3.14,3,0,6.15.5,12.29-.56,18.45-.93,5.45-.24,5.86,5.39,5.87a19.08,19.08,0,0,1,2.62,0c2.66.36,3.83-.42,3.59-3.37-.29-3.57.06-7.19-.12-10.77-.11-2.18.67-2.74,2.75-2.68,5.12.13,10.25,0,15.37,0,7.8,0,7.73,0,7.57-7.87,0-2.08-.59-2.74-2.74-2.68C29.53,25.93,24.28,25.82,19,25.83Zm0-25v0c-5,0-10,.06-15,0C2,.81.42.77.75,3.63.89,4.84.31,6.2.2,7.53-.07,10.46,1,11.42,4,11.36c8.62-.18,17.24-.06,25.86-.06,7.86,0,7.78,0,7.64-7.8,0-2.1-.64-2.75-2.77-2.69C29.51,1,24.26.85,19,.85Z"/><path class="cls-2" d="M19,25.83c5.25,0,10.5.1,15.74-.06,2.15-.06,2.7.6,2.74,2.68.16,7.88.23,7.88-7.57,7.87-5.12,0-10.25.08-15.37,0-2.08-.06-2.86.5-2.75,2.68.18,3.58-.17,7.2.12,10.77.24,3-.93,3.73-3.59,3.37a19.08,19.08,0,0,0-2.62,0c-5.63,0-6.32-.42-5.39-5.87C1.4,41,.88,34.89.9,28.74c0-2.56.8-3,3.14-3C9,26,14,25.83,19,25.83Z"/><path class="cls-2" d="M19,.85c5.25,0,10.5.1,15.74,0,2.13-.06,2.73.59,2.77,2.69.14,7.8.22,7.8-7.64,7.8-8.62,0-17.24-.12-25.86.06C1,11.42-.07,10.46.2,7.53.31,6.2.89,4.84.75,3.63.42.77,2,.81,4,.85c5,.08,10,0,15,0Z"/></svg>